<svg width="420" height="420" viewBox="0 0 420 420" xmlns="http://www.w3.org/2000/svg">
  <rect x="0" y="0" width="420" height="420" fill="white"/>
  <line x1="120" y1="320" x2="330" y2="320" stroke="#111827" stroke-width="2"/>
  <line x1="120" y1="320" x2="120" y2="80" stroke="#111827" stroke-width="2"/>
  <line x1="260" y1="320" x2="260" y2="80" stroke="#cbd5e1" stroke-dasharray="4 4"/>
  <line x1="120" y1="180" x2="330" y2="180" stroke="#cbd5e1" stroke-dasharray="4 4"/>
  <circle cx="120" cy="320" r="12" fill="#2563eb"/>
  <circle cx="120" cy="180" r="12" fill="#dc2626"/>
  <circle cx="260" cy="320" r="12" fill="#dc2626"/>
  <circle cx="260" cy="180" r="12" fill="#2563eb"/>
  <text x="150" y="314" font-size="14" fill="#111827">(0,0) -&gt; 0</text>
  <text x="150" y="174" font-size="14" fill="#111827">(0,1) -&gt; 1</text>
  <text x="285" y="314" font-size="14" fill="#111827">(1,0) -&gt; 1</text>
  <text x="285" y="174" font-size="14" fill="#111827">(1,1) -&gt; 0</text>
  <line x1="120" y1="320" x2="300" y2="140" stroke="#0f172a" stroke-width="3" stroke-dasharray="10 8" opacity="0.75"/>
  <text x="206" y="125" font-size="13" fill="#0f172a">single line attempt</text>
  <text x="338" y="325" font-size="16" fill="#111827">x1</text>
  <text x="108" y="70" font-size="16" fill="#111827">x2</text>
  <text x="120" y="345" font-size="13" fill="#475569" text-anchor="middle">0</text>
  <text x="260" y="345" font-size="13" fill="#475569" text-anchor="middle">1</text>
  <text x="96" y="324" font-size="13" fill="#475569" text-anchor="end">0</text>
  <text x="96" y="184" font-size="13" fill="#475569" text-anchor="end">1</text>
  <rect x="92" y="26" width="16" height="16" fill="#dc2626"/>
  <text x="116" y="39" font-size="13" fill="#111827">XOR = 1</text>
  <rect x="192" y="26" width="16" height="16" fill="#2563eb"/>
  <text x="216" y="39" font-size="13" fill="#111827">XOR = 0</text>
</svg>
